<svg xmlns="http://www.w3.org/2000/svg" viewBox="0 0 200 200" width="200" height="200">
  <!-- Background circle -->
  <circle cx="100" cy="100" r="95" fill="#1a1a2e" stroke="#7b2cbf" stroke-width="3"/>

  <!-- Gradients -->
  <defs>
    <radialGradient id="bodyGradient" cx="50%" cy="30%" r="70%">
      <stop offset="0%" style="stop-color:#c77dff"/>
      <stop offset="100%" style="stop-color:#7b2cbf"/>
    </radialGradient>
    <radialGradient id="chestGradient" cx="50%" cy="30%" r="70%">
      <stop offset="0%" style="stop-color:#e0aaff"/>
      <stop offset="100%" style="stop-color:#c77dff"/>
    </radialGradient>
    <linearGradient id="wingGradient" x1="0%" y1="0%" x2="100%" y2="100%">
      <stop offset="0%" style="stop-color:#9d4edd"/>
      <stop offset="100%" style="stop-color:#5a189a"/>
    </linearGradient>
  </defs>

  <!-- Ear tufts -->
  <path d="M 55 45 L 45 20 L 65 40 Z" fill="url(#bodyGradient)"/>
  <path d="M 145 45 L 155 20 L 135 40 Z" fill="url(#bodyGradient)"/>

  <!-- Inner ear tufts -->
  <path d="M 57 45 L 50 28 L 63 42 Z" fill="#e0aaff"/>
  <path d="M 143 45 L 150 28 L 137 42 Z" fill="#e0aaff"/>

  <!-- Main body -->
  <ellipse cx="100" cy="110" rx="55" ry="60" fill="url(#bodyGradient)"/>

  <!-- Head -->
  <ellipse cx="100" cy="75" rx="50" ry="42" fill="url(#bodyGradient)"/>

  <!-- Wings -->
  <path d="M 45 90 Q 25 110 30 145 Q 35 160 50 155 Q 55 140 55 120 Q 55 100 50 90 Z" fill="url(#wingGradient)"/>
  <path d="M 155 90 Q 175 110 170 145 Q 165 160 150 155 Q 145 140 145 120 Q 145 100 150 90 Z" fill="url(#wingGradient)"/>

  <!-- Wing feather details -->
  <path d="M 40 115 Q 45 115 50 110" stroke="#e0aaff" stroke-width="2" fill="none" opacity="0.5"/>
  <path d="M 38 130 Q 45 130 52 122" stroke="#e0aaff" stroke-width="2" fill="none" opacity="0.5"/>
  <path d="M 160 115 Q 155 115 150 110" stroke="#e0aaff" stroke-width="2" fill="none" opacity="0.5"/>
  <path d="M 162 130 Q 155 130 148 122" stroke="#e0aaff" stroke-width="2" fill="none" opacity="0.5"/>

  <!-- Chest/belly pattern -->
  <ellipse cx="100" cy="120" rx="30" ry="40" fill="url(#chestGradient)"/>

  <!-- Chest feather pattern -->
  <path d="M 85 100 Q 100 105 115 100" stroke="#9d4edd" stroke-width="1.5" fill="none" opacity="0.6"/>
  <path d="M 82 115 Q 100 122 118 115" stroke="#9d4edd" stroke-width="1.5" fill="none" opacity="0.6"/>
  <path d="M 85 130 Q 100 138 115 130" stroke="#9d4edd" stroke-width="1.5" fill="none" opacity="0.6"/>
  <path d="M 88 145 Q 100 152 112 145" stroke="#9d4edd" stroke-width="1.5" fill="none" opacity="0.6"/>

  <!-- Eye circles (large owl eyes) -->
  <circle cx="75" cy="70" r="22" fill="#1a1a2e" stroke="#9d4edd" stroke-width="3"/>
  <circle cx="125" cy="70" r="22" fill="#1a1a2e" stroke="#9d4edd" stroke-width="3"/>

  <!-- Eye whites -->
  <circle cx="75" cy="70" r="18" fill="white"/>
  <circle cx="125" cy="70" r="18" fill="white"/>

  <!-- Irises -->
  <circle cx="75" cy="70" r="12" fill="#f59e0b"/>
  <circle cx="125" cy="70" r="12" fill="#f59e0b"/>

  <!-- Pupils (slightly upward for cheerful look) -->
  <circle cx="75" cy="68" r="6" fill="#1a1a2e"/>
  <circle cx="125" cy="68" r="6" fill="#1a1a2e"/>

  <!-- Eye highlights (larger for cuter look) -->
  <circle cx="78" cy="64" r="4" fill="white"/>
  <circle cx="128" cy="64" r="4" fill="white"/>
  <circle cx="72" cy="70" r="2" fill="white"/>
  <circle cx="122" cy="70" r="2" fill="white"/>

  <!-- Beak -->
  <path d="M 100 82 L 93 95 L 100 105 L 107 95 Z" fill="#f59e0b"/>
  <path d="M 100 88 L 96 95 L 100 100 L 104 95 Z" fill="#d97706"/>

  <!-- Eyebrows (happy, friendly look - curved upward) -->
  <path d="M 55 58 Q 70 52 85 58" stroke="#5a189a" stroke-width="3" fill="none" stroke-linecap="round"/>
  <path d="M 145 58 Q 130 52 115 58" stroke="#5a189a" stroke-width="3" fill="none" stroke-linecap="round"/>

  <!-- Rosy cheeks for friendly appearance -->
  <ellipse cx="52" cy="85" rx="8" ry="5" fill="#e0aaff" opacity="0.5"/>
  <ellipse cx="148" cy="85" rx="8" ry="5" fill="#e0aaff" opacity="0.5"/>

  <!-- Feet -->
  <ellipse cx="85" cy="168" rx="12" ry="6" fill="#f59e0b"/>
  <ellipse cx="115" cy="168" rx="12" ry="6" fill="#f59e0b"/>
  <circle cx="78" cy="170" r="4" fill="#d97706"/>
  <circle cx="85" cy="172" r="4" fill="#d97706"/>
  <circle cx="92" cy="170" r="4" fill="#d97706"/>
  <circle cx="108" cy="170" r="4" fill="#d97706"/>
  <circle cx="115" cy="172" r="4" fill="#d97706"/>
  <circle cx="122" cy="170" r="4" fill="#d97706"/>

  <!-- Trading arrows (representing arbitrage) -->
  <g transform="translate(30, 55)">
    <polygon points="0,0 10,5 0,10 3,5" fill="#10b981"/>
  </g>
  <g transform="translate(160, 55)">
    <polygon points="10,0 0,5 10,10 7,5" fill="#ef4444"/>
  </g>
</svg>
