<svg xmlns="http://www.w3.org/2000/svg" viewBox="0 0 200 200" width="200" height="200">
  <!-- Background circle -->
  <circle cx="100" cy="100" r="95" fill="#1a1a2e" stroke="#7b2cbf" stroke-width="3"/>

  <!-- Gradients -->
  <defs>
    <radialGradient id="bodyGradient" cx="50%" cy="30%" r="70%">
      <stop offset="0%" style="stop-color:#c77dff"/>
      <stop offset="100%" style="stop-color:#9d4edd"/>
    </radialGradient>
    <radialGradient id="bellyGradient" cx="50%" cy="30%" r="70%">
      <stop offset="0%" style="stop-color:#f3e8ff"/>
      <stop offset="100%" style="stop-color:#e0aaff"/>
    </radialGradient>
  </defs>

  <!-- Body (round and chubby) -->
  <ellipse cx="100" cy="115" rx="50" ry="55" fill="url(#bodyGradient)"/>

  <!-- Head (big and round for cuteness) -->
  <circle cx="100" cy="70" r="45" fill="url(#bodyGradient)"/>

  <!-- Ear tufts (small and rounded) -->
  <ellipse cx="65" cy="35" rx="8" ry="15" fill="#9d4edd" transform="rotate(-20 65 35)"/>
  <ellipse cx="135" cy="35" rx="8" ry="15" fill="#9d4edd" transform="rotate(20 135 35)"/>
  <ellipse cx="65" cy="38" rx="5" ry="10" fill="#e0aaff" transform="rotate(-20 65 38)"/>
  <ellipse cx="135" cy="38" rx="5" ry="10" fill="#e0aaff" transform="rotate(20 135 38)"/>

  <!-- Belly (light colored, round) -->
  <ellipse cx="100" cy="125" rx="32" ry="38" fill="url(#bellyGradient)"/>

  <!-- Belly pattern (cute scalloped feathers) -->
  <path d="M 75 105 Q 85 112 100 108 Q 115 112 125 105" stroke="#c77dff" stroke-width="2" fill="none" opacity="0.5"/>
  <path d="M 72 120 Q 85 128 100 123 Q 115 128 128 120" stroke="#c77dff" stroke-width="2" fill="none" opacity="0.5"/>
  <path d="M 75 135 Q 87 143 100 138 Q 113 143 125 135" stroke="#c77dff" stroke-width="2" fill="none" opacity="0.5"/>

  <!-- Face disc (lighter area around eyes) -->
  <ellipse cx="100" cy="72" rx="38" ry="32" fill="#e0aaff" opacity="0.4"/>

  <!-- Big cute eyes (white background) -->
  <ellipse cx="78" cy="70" rx="18" ry="20" fill="white"/>
  <ellipse cx="122" cy="70" rx="18" ry="20" fill="white"/>

  <!-- Irises (big and sparkly) -->
  <circle cx="80" cy="72" r="12" fill="#7c3aed"/>
  <circle cx="120" cy="72" r="12" fill="#7c3aed"/>

  <!-- Pupils (looking up playfully) -->
  <circle cx="82" cy="70" r="6" fill="#1a1a2e"/>
  <circle cx="122" cy="70" r="6" fill="#1a1a2e"/>

  <!-- Eye sparkles (multiple for cute anime effect) -->
  <circle cx="85" cy="66" r="4" fill="white"/>
  <circle cx="125" cy="66" r="4" fill="white"/>
  <circle cx="78" cy="74" r="2" fill="white"/>
  <circle cx="118" cy="74" r="2" fill="white"/>

  <!-- Happy eyebrows (curved and angled upward toward center) -->
  <path d="M 60 58 Q 72 48 85 50" stroke="#7b2cbf" stroke-width="2.5" fill="none" stroke-linecap="round"/>
  <path d="M 140 58 Q 128 48 115 50" stroke="#7b2cbf" stroke-width="2.5" fill="none" stroke-linecap="round"/>

  <!-- Rosy cheeks -->
  <ellipse cx="55" cy="82" rx="10" ry="6" fill="#ff9ecd" opacity="0.6"/>
  <ellipse cx="145" cy="82" rx="10" ry="6" fill="#ff9ecd" opacity="0.6"/>

  <!-- Small cute beak -->
  <ellipse cx="100" cy="90" rx="8" ry="6" fill="#f59e0b"/>
  <path d="M 94 90 Q 100 96 106 90" stroke="#d97706" stroke-width="1.5" fill="none"/>

  <!-- Little wings (tucked in, cute) -->
  <ellipse cx="55" cy="115" rx="12" ry="25" fill="#9d4edd" transform="rotate(15 55 115)"/>
  <ellipse cx="145" cy="115" rx="12" ry="25" fill="#9d4edd" transform="rotate(-15 145 115)"/>

  <!-- Wing highlights -->
  <ellipse cx="57" cy="110" rx="6" ry="15" fill="#c77dff" transform="rotate(15 57 110)"/>
  <ellipse cx="143" cy="110" rx="6" ry="15" fill="#c77dff" transform="rotate(-15 143 110)"/>

  <!-- Tiny feet -->
  <ellipse cx="85" cy="168" rx="10" ry="5" fill="#f59e0b"/>
  <ellipse cx="115" cy="168" rx="10" ry="5" fill="#f59e0b"/>
  <circle cx="78" cy="170" r="3" fill="#d97706"/>
  <circle cx="85" cy="171" r="3" fill="#d97706"/>
  <circle cx="92" cy="170" r="3" fill="#d97706"/>
  <circle cx="108" cy="170" r="3" fill="#d97706"/>
  <circle cx="115" cy="171" r="3" fill="#d97706"/>
  <circle cx="122" cy="170" r="3" fill="#d97706"/>

  <!-- Sparkles around owl (playful effect) -->
  <g fill="#e0aaff">
    <path d="M 30 50 L 33 55 L 30 60 L 27 55 Z"/>
    <path d="M 170 50 L 173 55 L 170 60 L 167 55 Z"/>
    <path d="M 25 130 L 27 133 L 25 136 L 23 133 Z"/>
    <path d="M 175 130 L 177 133 L 175 136 L 173 133 Z"/>
  </g>

  <!-- Trading arrows (small and cute) -->
  <g transform="translate(35, 155)">
    <circle cx="5" cy="5" r="8" fill="#10b981" opacity="0.3"/>
    <polygon points="2,5 8,2 8,8" fill="#10b981"/>
  </g>
  <g transform="translate(155, 155)">
    <circle cx="5" cy="5" r="8" fill="#ef4444" opacity="0.3"/>
    <polygon points="8,5 2,2 2,8" fill="#ef4444"/>
  </g>
</svg>
